<svg width="32" height="32" viewBox="0 0 32 32" fill="none" xmlns="http://www.w3.org/2000/svg">
<g clip-path="url(#clip0_3091_7005)">
<mask id="mask0_3091_7005" style="mask-type:luminance" maskUnits="userSpaceOnUse" x="0" y="0" width="32" height="32">
<path d="M32 0H0V32H32V0Z" fill="white"/>
</mask>
<g mask="url(#mask0_3091_7005)">
<path d="M16 32C24.8366 32 32 24.8366 32 16C32 7.16344 24.8366 0 16 0C7.16344 0 0 7.16344 0 16C0 24.8366 7.16344 32 16 32Z" fill="#F0F0F0"/>
<path d="M3.30709 6.25781C2.05028 7.893 1.10259 9.77769 0.550781 11.8251H8.87441L3.30709 6.25781Z" fill="#0052B4"/>
<path d="M31.4485 11.8251C30.8967 9.77769 29.9489 7.893 28.6922 6.25781L23.125 11.8251H31.4485Z" fill="#0052B4"/>
<path d="M0.550781 20.1738C1.10266 22.2212 2.05034 24.1059 3.30709 25.741L8.87422 20.1738H0.550781Z" fill="#0052B4"/>
<path d="M25.7411 3.30716C24.1059 2.05034 22.2213 1.10266 20.1738 0.550781V8.87434L25.7411 3.30716Z" fill="#0052B4"/>
<path d="M6.25879 28.6921C7.89398 29.9489 9.77866 30.8966 11.826 31.4485V23.125L6.25879 28.6921Z" fill="#0052B4"/>
<path d="M11.826 0.550781C9.7786 1.10266 7.89391 2.05034 6.25879 3.30709L11.826 8.87428V0.550781Z" fill="#0052B4"/>
<path d="M20.1738 31.4485C22.2212 30.8966 24.1059 29.9489 25.741 28.6922L20.1738 23.125V31.4485Z" fill="#0052B4"/>
<path d="M23.125 20.1738L28.6922 25.7411C29.9489 24.106 30.8967 22.2212 31.4485 20.1738H23.125Z" fill="#0052B4"/>
<path d="M31.8646 13.9131H18.0871L18.087 0.135438C17.4038 0.0465 16.7073 0 16 0C15.2926 0 14.5962 0.0465 13.9131 0.135438V13.9129L0.135438 13.913C0.0465 14.5962 0 15.2927 0 16C0 16.7074 0.0465 17.4038 0.135438 18.0869H13.9129L13.913 31.8646C14.5962 31.9535 15.2926 32 16 32C16.7073 32 17.4038 31.9536 18.0869 31.8646V18.0871L31.8646 18.087C31.9535 17.4038 32 16.7074 32 16C32 15.2927 31.9535 14.5962 31.8646 13.9131Z" fill="#D80027"/>
<path d="M20.1738 20.1739L27.3136 27.3136C27.642 26.9854 27.9552 26.6422 28.2541 26.2865L22.1415 20.1738L20.1738 20.1739Z" fill="#D80027"/>
<path d="M11.8263 20.1738L4.68652 27.3135C5.01477 27.6419 5.35796 27.9551 5.71371 28.254L11.8263 22.1413V20.1738Z" fill="#D80027"/>
<path d="M11.8263 11.8255L4.68659 4.68555C4.35822 5.0138 4.04497 5.35698 3.74609 5.71273L9.85878 11.8254L11.8263 11.8255Z" fill="#D80027"/>
<path d="M20.1738 11.8264L27.3136 4.68653C26.9854 4.35816 26.6422 4.04491 26.2865 3.74609L20.1738 9.85878V11.8264Z" fill="#D80027"/>
</g>
</g>
<defs>
<clipPath id="clip0_3091_7005">
<rect width="32" height="32" fill="white"/>
</clipPath>
</defs>
</svg>
