<svg width="32" height="32" viewBox="0 0 32 32" fill="none" xmlns="http://www.w3.org/2000/svg">
<g clip-path="url(#clip0_3091_6749)">
<path d="M32 0H0V32H32V0Z" fill="white"/>
<path d="M32 0H0V32H32V0Z" fill="url(#paint0_linear_3091_6749)"/>
<path d="M25.1533 21.3486C24.9982 21.4715 24.8325 21.5821 24.6543 21.6729C24.0126 21.9998 23.1722 22 21.4922 22H10.7998C9.12027 22 8.2803 21.9996 7.63867 21.6729C7.46009 21.5819 7.29307 21.4718 7.1377 21.3486L12.5195 15.9678L13.792 17.2402C14.4419 17.8901 15.2937 18.2147 16.1455 18.2148C16.4711 18.2148 16.797 18.1672 17.1113 18.0723C17.6194 17.9188 18.0984 17.6418 18.5 17.2402L19.7725 15.9678L25.1533 21.3486ZM25.624 10.1152C25.7545 10.2767 25.8705 10.4507 25.9658 10.6377C26.2928 11.2794 26.292 12.1198 26.292 13.7998V17.1992C26.292 18.879 26.2926 19.7196 25.9658 20.3613C25.875 20.5397 25.7646 20.7061 25.6416 20.8613L20.2607 15.4795L25.624 10.1152ZM12.0312 15.4795L6.65039 20.8604C6.52772 20.7054 6.41783 20.5393 6.32715 20.3613C6.00032 19.7196 6 18.8791 6 17.1992V13.7998C6 12.1198 6.00018 11.2794 6.32715 10.6377C6.42236 10.4509 6.5376 10.2766 6.66797 10.1152L12.0312 15.4795ZM21.4922 9C23.1723 9 24.0126 9.00018 24.6543 9.32715C24.8405 9.42203 25.0139 9.53718 25.1748 9.66699L18.0518 16.792C17.6572 17.1865 17.1705 17.4325 16.6611 17.5312C16.3125 17.5987 15.9525 17.5974 15.6045 17.5264C15.1047 17.4243 14.628 17.1797 14.2402 16.792L7.11621 9.66699C7.27738 9.53684 7.45206 9.42223 7.63867 9.32715C8.28032 9.00032 9.12016 9 10.7998 9H21.4922Z" fill="url(#paint1_linear_3091_6749)"/>
</g>
<defs>
<linearGradient id="paint0_linear_3091_6749" x1="16" y1="0" x2="16" y2="32" gradientUnits="userSpaceOnUse">
<stop stop-color="#1A6AE7"/>
<stop offset="1" stop-color="#20C2F4"/>
</linearGradient>
<linearGradient id="paint1_linear_3091_6749" x1="16.146" y1="9" x2="16.146" y2="22" gradientUnits="userSpaceOnUse">
<stop stop-color="#F7F7F7"/>
<stop offset="1" stop-color="#F9F9F9"/>
</linearGradient>
<clipPath id="clip0_3091_6749">
<rect width="32" height="32" fill="white"/>
</clipPath>
</defs>
</svg>
