<svg width="32" height="32" viewBox="0 0 32 32" fill="none" xmlns="http://www.w3.org/2000/svg">
<g clip-path="url(#clip0_3091_6740)">
<path d="M32 0H0V32H32V0Z" fill="url(#paint0_linear_3091_6740)"/>
<path d="M7.34558 11.9741C6.30756 9.1816 7.81136 7.78607 9.17064 7.2417C9.67464 7.03986 10.2216 7.28311 10.532 7.72854L12.5486 10.6225C12.913 11.1455 12.8609 11.8377 12.5364 12.3864C12.3668 12.673 12.2437 12.9415 12.1544 13.1904C11.827 14.1026 12.2116 15.0846 12.8065 15.8498C14.7219 18.3133 16.6949 20.0997 17.7032 20.147C18.3042 20.1752 19.0049 19.8327 19.5426 19.4942C20.079 19.1566 20.7745 19.1062 21.3018 19.4578L24.2621 21.4317C24.7129 21.7323 24.9706 22.2735 24.8047 22.7894C23.9288 25.5135 21.131 25.1764 19.7255 24.6025C12.784 21.3771 8.93065 16.2382 7.34558 11.9741Z" fill="#FEFEFE"/>
</g>
<defs>
<linearGradient id="paint0_linear_3091_6740" x1="16" y1="0" x2="16" y2="32" gradientUnits="userSpaceOnUse">
<stop stop-color="#5CF777"/>
<stop offset="1" stop-color="#0EBC29"/>
</linearGradient>
<clipPath id="clip0_3091_6740">
<rect width="32" height="32" fill="white"/>
</clipPath>
</defs>
</svg>
