<svg width="32" height="32" viewBox="0 0 32 32" fill="none" xmlns="http://www.w3.org/2000/svg">
<g clip-path="url(#clip0_3091_6756)">
<path d="M32 0H0V32H32V0Z" fill="#0088CC"/>
<path d="M9.09992 14.7083C13.3949 12.8371 16.2589 11.6034 17.6919 11.0074C21.7834 9.30558 22.6335 9.00996 23.1877 9.00009C23.3095 8.99805 23.582 9.02826 23.7586 9.17149C23.9076 9.29243 23.9486 9.45582 23.9683 9.57049C23.9879 9.68515 24.0123 9.94637 23.9929 10.1505C23.7712 12.4801 22.8118 18.1335 22.3237 20.7427C22.1172 21.8468 21.7105 22.217 21.3169 22.2532C20.4613 22.3319 19.8116 21.6878 18.9829 21.1446C17.6862 20.2946 16.9537 19.7654 15.695 18.936C14.2404 17.9774 15.1834 17.4506 16.0124 16.5896C16.2293 16.3643 19.999 12.9355 20.0719 12.6244C20.0811 12.5855 20.0895 12.4405 20.0034 12.3639C19.9172 12.2874 19.7901 12.3136 19.6983 12.3344C19.5683 12.3639 17.4968 13.7331 13.4839 16.4419C12.8959 16.8457 12.3633 17.0424 11.8862 17.0321C11.3601 17.0207 10.3482 16.7346 9.59598 16.4901C8.67333 16.1902 7.94002 16.0316 8.00388 15.5223C8.03714 15.257 8.40248 14.9856 9.09992 14.7083Z" fill="white"/>
</g>
<defs>
<clipPath id="clip0_3091_6756">
<rect width="32" height="32" fill="white"/>
</clipPath>
</defs>
</svg>
