<svg width="32" height="32" viewBox="0 0 32 32" fill="none" xmlns="http://www.w3.org/2000/svg">
<g clip-path="url(#clip0_3091_6991)">
<mask id="mask0_3091_6991" style="mask-type:luminance" maskUnits="userSpaceOnUse" x="0" y="0" width="32" height="32">
<path d="M32 0H0V32H32V0Z" fill="white"/>
</mask>
<g mask="url(#mask0_3091_6991)">
<path d="M16 32C24.8366 32 32 24.8366 32 16C32 7.16344 24.8366 0 16 0C7.16344 0 0 7.16344 0 16C0 24.8366 7.16344 32 16 32Z" fill="#FCFCFC"/>
<path d="M6.60924 14.841L4.87012 11.6858L6.60924 8.58008L8.34837 11.6858L6.60924 14.841Z" fill="#A2001D"/>
<path d="M3.13073 14.841L1.3916 11.6858L3.13073 8.58008L4.86985 11.6858L3.13073 14.841Z" fill="#A2001D"/>
<path d="M6.60924 23.421L4.87012 20.2658L6.60924 17.1602L8.34837 20.2658L6.60924 23.421Z" fill="#A2001D"/>
<path d="M3.13073 23.421L1.3916 20.2658L3.13073 17.1602L4.86985 20.2658L3.13073 23.421Z" fill="#A2001D"/>
<path d="M8.34786 3.10581L7.85548 2.22656C6.97236 2.74981 6.14405 3.35562 5.38086 4.03337L6.60873 6.26094L8.34786 3.10581Z" fill="#A2001D"/>
<path d="M6.60904 25.7383L5.36816 27.9543C6.13066 28.6329 6.95841 29.2397 7.84116 29.764L8.34823 28.844L6.60904 25.7383Z" fill="#A2001D"/>
<path d="M9.73926 20.1738V30.7278C11.6623 31.5463 13.7781 31.9999 16.0001 31.9999C22.8796 31.9999 28.7443 27.6579 31.0049 21.5651L9.73926 20.1738Z" fill="#6DA544"/>
<path d="M31.0049 21.5652C31.6481 19.8319 32.0001 17.9571 32.0001 16C32.0001 7.1635 24.8366 0 16.0001 0C13.7783 0 11.6623 0.453312 9.73926 1.27175V21.5653L31.0049 21.5652Z" fill="#A2001D"/>
</g>
</g>
<defs>
<clipPath id="clip0_3091_6991">
<rect width="32" height="32" fill="white"/>
</clipPath>
</defs>
</svg>
