<svg width="32" height="32" viewBox="0 0 32 32" fill="none" xmlns="http://www.w3.org/2000/svg">
<g clip-path="url(#clip0_3091_6746)">
<path d="M32 0H0V32H32V0Z" fill="#1157FF"/>
<path d="M12.6537 10.6035C13.1155 10.6035 13.5418 10.639 13.9326 10.7456C14.3234 10.8167 14.6431 10.9588 14.9273 11.1364C15.2115 11.314 15.4246 11.5627 15.5667 11.8824C15.7088 12.2021 15.7799 12.5929 15.7799 13.0192C15.7799 13.5165 15.6733 13.9428 15.4246 14.2625C15.2115 14.5823 14.8562 14.8665 14.43 15.0796C15.0339 15.2572 15.4957 15.577 15.7799 16.0033C16.0641 16.4295 16.2417 16.9624 16.2417 17.5663C16.2417 18.0637 16.1351 18.49 15.9575 18.8452C15.7799 19.2005 15.4957 19.5202 15.176 19.7333C14.8562 19.9465 14.4655 20.1241 14.0392 20.2307C13.6129 20.3373 13.1866 20.4083 12.7603 20.4083H8V10.6035H12.6537ZM12.3695 14.5823C12.7603 14.5823 13.08 14.4757 13.3287 14.2981C13.5774 14.1204 13.6839 13.8007 13.6839 13.41C13.6839 13.1968 13.6484 12.9837 13.5774 12.8416C13.5063 12.6995 13.3997 12.5929 13.2576 12.4863C13.1155 12.4153 12.9734 12.3442 12.7958 12.3087C12.6182 12.2732 12.4406 12.2732 12.2274 12.2732H10.167V14.5823H12.3695ZM12.4761 18.7742C12.6892 18.7742 12.9024 18.7386 13.08 18.7031C13.2576 18.6676 13.4353 18.5965 13.5774 18.49C13.7195 18.3834 13.826 18.2768 13.9326 18.0992C14.0037 17.9216 14.0747 17.7084 14.0747 17.4598C14.0747 16.9624 13.9326 16.6072 13.6484 16.3585C13.3642 16.1454 12.9734 16.0388 12.5116 16.0388H10.167V18.7742H12.4761ZM19.3323 18.7386C19.6165 19.0228 20.0428 19.1649 20.6112 19.1649C21.002 19.1649 21.3572 19.0584 21.6414 18.8807C21.9256 18.6676 22.1033 18.4544 22.1743 18.2413H23.915C23.6308 19.0939 23.2045 19.6978 22.6361 20.0886C22.0677 20.4438 21.3928 20.657 20.5757 20.657C20.0073 20.657 19.51 20.5504 19.0481 20.3728C18.5863 20.1952 18.2311 19.9465 17.9114 19.5912C17.5916 19.2715 17.343 18.8807 17.2009 18.4189C17.0232 17.9571 16.9522 17.4598 16.9522 16.8914C16.9522 16.3585 17.0232 15.8612 17.2009 15.3993C17.3785 14.9375 17.6272 14.5467 17.9469 14.1915C18.2666 13.8718 18.6574 13.5876 19.0837 13.41C19.5455 13.2323 20.0073 13.1258 20.5757 13.1258C21.1796 13.1258 21.7125 13.2323 22.1743 13.481C22.6361 13.7297 22.9914 14.0139 23.2756 14.4402C23.5598 14.8309 23.7729 15.2928 23.915 15.7901C23.9861 16.2874 24.0216 16.7848 23.9861 17.3532H18.835C18.835 17.9216 19.0481 18.4544 19.3323 18.7386ZM21.5704 15.0086C21.3217 14.7599 20.9309 14.6178 20.4691 14.6178C20.1494 14.6178 19.9007 14.6888 19.6876 14.7954C19.4744 14.902 19.3323 15.0441 19.1902 15.1862C19.0481 15.3283 18.9771 15.5059 18.9416 15.6835C18.906 15.8612 18.8705 16.0033 18.8705 16.1454H22.0677C21.9967 15.6125 21.8191 15.2572 21.5704 15.0086ZM18.4442 11.2785H22.423V12.2376H18.4442V11.2785Z" fill="white"/>
</g>
<defs>
<clipPath id="clip0_3091_6746">
<rect width="32" height="32" fill="white"/>
</clipPath>
</defs>
</svg>
