<svg width="40" height="40" viewBox="0 0 40 40" fill="none" xmlns="http://www.w3.org/2000/svg">
<g clip-path="url(#clip0_3090_6633)">
<path d="M40 0H0V40H40V0Z" fill="#2E0501"/>
<path d="M20.7321 24.6235H14.7135L13.2089 29.1909C13.1916 29.3301 13.0965 29.3997 12.9235 29.3997H10.1996C10.0266 29.3997 9.96606 29.3127 10.018 29.1387L15.414 13.6357C15.535 13.3747 15.6129 12.8875 15.6474 12.1742C15.6474 12.0698 15.708 12.0176 15.829 12.0176H19.5647C19.6512 12.0176 19.7204 12.0611 19.7723 12.1481L25.7909 29.1648C25.8428 29.3214 25.7909 29.3997 25.6353 29.3997H22.5741C22.453 29.3997 22.3665 29.3388 22.3146 29.217L20.7321 24.6235ZM15.388 22.0919H20.0576C19.9885 21.8483 19.6253 20.7434 18.9681 18.7773C18.3282 16.7937 17.9044 15.4366 17.6969 14.7058H17.671C17.4634 15.5932 16.7024 18.0552 15.388 22.0919Z" fill="#F2A032"/>
<path d="M27.4011 29.1651V16.8984C27.4011 16.7592 27.4702 16.6896 27.6086 16.6896H30.4882C30.6266 16.6896 30.6957 16.7592 30.6957 16.8984V29.1912C30.6957 29.3304 30.6266 29.4 30.4882 29.4H27.6345C27.4789 29.4 27.4011 29.3217 27.4011 29.1651ZM30.3325 14.0536C30.0212 14.3668 29.5975 14.5234 29.0614 14.5234C28.5252 14.5234 28.1015 14.3668 27.7902 14.0536C27.4789 13.7404 27.3232 13.3141 27.3232 12.7748C27.3232 12.2528 27.4875 11.8265 27.8161 11.4959C28.1447 11.1653 28.5685 11 29.0873 11C29.6062 11 30.0212 11.1653 30.3325 11.4959C30.6439 11.8265 30.7995 12.2528 30.7995 12.7748C30.7995 13.3141 30.6439 13.7404 30.3325 14.0536Z" fill="#F2A032"/>
</g>
<defs>
<clipPath id="clip0_3090_6633">
<rect width="40" height="40" fill="white"/>
</clipPath>
</defs>
</svg>
