<svg width="40" height="40" viewBox="0 0 40 40" fill="none" xmlns="http://www.w3.org/2000/svg">
<g clip-path="url(#clip0_3090_6622)">
<path d="M40 0H0V40H40V0Z" fill="#001E36"/>
<path d="M9 28.5591V11.634C9 11.5129 9.06066 11.4523 9.18199 11.4523C10.4993 11.4177 12.1718 11.4004 14.1997 11.4004C16.5916 11.4004 18.3422 11.9369 19.4515 13.0098C20.5781 14.0828 21.1414 15.4067 21.1414 16.9815C21.1414 18.9371 20.4481 20.3908 19.0615 21.3426C17.6749 22.2944 15.933 22.7703 13.8357 22.7703H12.3018V28.5331C12.3018 28.6716 12.2325 28.7408 12.0938 28.7408H9.20799C9.06933 28.7408 9 28.6802 9 28.5591ZM12.3018 13.8924V20.2783C12.5445 20.3129 13.1078 20.3302 13.9917 20.3302C15.153 20.3302 16.089 20.0792 16.7996 19.5774C17.5276 19.0582 17.8915 18.2189 17.8915 17.0594C17.8915 16.0383 17.5709 15.2509 16.9296 14.6971C16.3056 14.1434 15.3957 13.8665 14.1997 13.8665C13.9051 13.8665 13.6104 13.8751 13.3158 13.8924C13.0385 13.8924 12.8045 13.8924 12.6138 13.8924C12.4405 13.8924 12.3365 13.8924 12.3018 13.8924Z" fill="#31A8FE"/>
<path d="M30.2126 19.0841C29.2419 18.4784 28.228 18.1755 27.1707 18.1755C26.5641 18.1755 26.1134 18.288 25.8188 18.513C25.5415 18.7379 25.4028 19.0062 25.4028 19.3177C25.4028 19.6292 25.5241 19.9061 25.7668 20.1484C26.0094 20.3733 26.5207 20.6416 27.3007 20.9531C28.7393 21.5069 29.7446 22.0953 30.3165 22.7183C30.9059 23.324 31.2005 24.1114 31.2005 25.0805C31.2005 26.2573 30.7499 27.2091 29.8486 27.936C28.9646 28.6455 27.76 29.0003 26.2348 29.0003C24.7095 29.0003 23.4616 28.7234 22.491 28.1696C22.387 28.135 22.335 28.0485 22.335 27.91V25.4959C22.335 25.4266 22.3523 25.3834 22.387 25.3661C22.439 25.3315 22.4823 25.3315 22.517 25.3661C23.6436 26.1967 24.8482 26.6121 26.1308 26.6121C26.7374 26.6121 27.1967 26.5083 27.5087 26.3006C27.838 26.0756 28.0027 25.7901 28.0027 25.4439C28.0027 25.0805 27.8727 24.7777 27.6127 24.5354C27.3527 24.2758 26.8414 23.9989 26.0788 23.7047C24.6922 23.1682 23.7216 22.5971 23.1669 21.9914C22.6296 21.3684 22.361 20.5897 22.361 19.6552C22.361 18.5822 22.7683 17.6823 23.5829 16.9555C24.3975 16.2286 25.5588 15.8652 27.0667 15.8652C28.4706 15.8652 29.5539 16.0556 30.3165 16.4363C30.4032 16.4882 30.4465 16.6007 30.4465 16.7737V18.9283C30.4465 19.136 30.3685 19.1879 30.2126 19.0841Z" fill="#31A8FE"/>
</g>
<defs>
<clipPath id="clip0_3090_6622">
<rect width="40" height="40" fill="white"/>
</clipPath>
</defs>
</svg>
