<svg width="40" height="40" viewBox="0 0 40 40" fill="none" xmlns="http://www.w3.org/2000/svg">
<g clip-path="url(#clip0_3090_6626)">
<path d="M40 0H0V40H40V0Z" fill="#000B1D"/>
<path d="M16.1667 32.0013C18.4679 32.0013 20.3333 30.1358 20.3333 27.8346V23.668H16.1667C13.8655 23.668 12 25.5334 12 27.8346C12 30.1358 13.8655 32.0013 16.1667 32.0013Z" fill="#0ACF83"/>
<path d="M12 19.4987C12 17.1975 13.8655 15.332 16.1667 15.332H20.3333V23.6654H16.1667C13.8655 23.6654 12 21.7999 12 19.4987Z" fill="#A259FF"/>
<path d="M12 11.1667C12 8.86548 13.8655 7 16.1667 7H20.3333V15.3333H16.1667C13.8655 15.3333 12 13.4679 12 11.1667Z" fill="#F24E1E"/>
<path d="M20.332 7H24.4987C26.7999 7 28.6654 8.86548 28.6654 11.1667C28.6654 13.4679 26.7999 15.3333 24.4987 15.3333H20.332V7Z" fill="#FF7262"/>
<path d="M28.6654 19.4987C28.6654 21.7999 26.7999 23.6654 24.4987 23.6654C22.1975 23.6654 20.332 21.7999 20.332 19.4987C20.332 17.1975 22.1975 15.332 24.4987 15.332C26.7999 15.332 28.6654 17.1975 28.6654 19.4987Z" fill="#1ABCFE"/>
</g>
<defs>
<clipPath id="clip0_3090_6626">
<rect width="40" height="40" fill="white"/>
</clipPath>
</defs>
</svg>
